Coordinates
version=1
nRows=12
nColumns=24
inDegrees=yes

Units are S.I. units (second, meters, Newtons, ...)
Angles are in degrees.

endheader
time	pelvis_tilt	pelvis_list	pelvis_rotation	pelvis_tx	pelvis_ty	pelvis_tz	hip_flexion_r	hip_adduction_r	hip_rotation_r	knee_angle_r	ankle_angle_r	subtalar_angle_r	mtp_angle_r	hip_flexion_l	hip_adduction_l	hip_rotation_l	knee_angle_l	ankle_angle_l	subtalar_angle_l	mtp_angle_l	lumbar_extension	lumbar_bending	lumbar_rotation
      2.93000000	     24.01310740	     -6.25147544	      4.70776074	      0.12541631	      1.03206927	      0.04943579	    -15.72405287	      8.00956830	     -7.40917281	    -13.80275348	      9.05041801	    -11.43476965	      5.06980787	     -7.46517461	    -13.77516231	     -0.83584599	    -59.25557320	     -1.88630759	    -13.50721514	     41.55033681	    -37.19273128	      7.42323194	      1.90028019
      2.93500000	     24.02317716	     -6.11600761	      4.69247046	      0.13005243	      1.03268811	      0.04988435	    -16.19667596	      7.92622536	     -7.38885470	    -13.52655603	      9.25710068	    -11.32389337	      4.63138189	     -6.88534889	    -13.62266452	     -0.92848494	    -59.11021677	     -1.36928264	    -13.51118881	     38.99609693	    -37.23366283	      7.28198873	      1.92514303
      2.94000000	     23.99976363	     -6.03111282	      4.66138300	      0.13466617	      1.03322349	      0.05039895	    -16.63086090	      7.89738241	     -7.28796575	    -13.23749150	      9.34482128	    -11.32058767	      4.63243758	     -6.28352022	    -13.53329103	     -1.06109579	    -58.89080290	     -1.06164048	    -13.65643788	     38.98914818	    -37.24459525	      7.17310975	      1.97741644
      2.94500000	     23.98263931	     -5.93913442	      4.61212590	      0.13929379	      1.03375253	      0.05090691	    -17.07494911	      7.85252640	     -7.18312306	    -12.94776585	      9.44430018	    -11.31453480	      4.63181044	     -5.72390721	    -13.42872883	     -1.22456342	    -58.59150670	     -0.74964933	    -13.78197920	     38.96347857	    -37.26224629	      7.04933809	      2.03859038
      2.95000000	     24.03820557	     -5.80972542	      4.46526794	      0.14398218	      1.03442070	      0.05153298	    -17.60802190	      7.74164033	     -7.02975981	    -12.66244991	      9.57572497	    -11.30580963	      4.60760033	     -5.34806867	    -13.27820050	     -1.52288862	    -58.14187161	     -0.43622352	    -13.85158095	     38.80108484	    -37.36030653	      6.83259156	      2.19048344
      2.95500000	     24.08052890	     -5.70593650	      4.36308489	      0.14864211	      1.03501310	      0.05208528	    -18.13334728	      7.66560773	     -6.89664530	    -12.35010976	      9.67399438	    -11.25663763	      4.57326206	     -4.94181195	    -13.16013399	     -1.78724610	    -57.66770114	     -0.10989681	    -13.88384263	     38.58994951	    -37.44335165	      6.66584706	      2.29688969
      2.96000000	     24.15031901	     -5.60966288	      4.24191753	      0.15331934	      1.03562199	      0.05268334	    -18.69856041	      7.59305451	     -6.72062656	    -12.02225144	      9.77147663	    -11.17528229	      4.50976707	     -4.60854630	    -13.05315892	     -2.08761512	    -57.10039562	      0.17385357	    -13.83462532	     38.20565555	    -37.55591358	      6.49174848	      2.40893055
      2.96500000	     24.18598092	     -5.49599965	      4.16155891	      0.15797553	      1.03615824	      0.05314685	    -19.21116963	      7.50176933	     -6.66887930	    -11.71876515	      9.88544312	    -11.07742146	      4.05884075	     -4.23466055	    -12.90747956	     -2.33277964	    -56.51132694	      0.70543171	    -13.65683090	     35.72254620	    -37.63045930	      6.33119840	      2.48581632
      2.97000000	     24.19678746	     -5.42845885	      4.02603719	      0.16261476	      1.03661486	      0.05375262	    -19.68681249	      7.44531053	     -6.48890855	    -11.43025351	     10.02190175	    -11.02477699	      4.05984914	     -3.87142163	    -12.82797394	     -2.66966937	    -55.83910639	      1.01826424	    -13.57567337	     35.68250439	    -37.68542722	      6.17267471	      2.62121575
      2.97500000	     24.24727091	     -5.33382373	      3.89101080	      0.16728513	      1.03712487	      0.05431323	    -20.22295165	      7.35696761	     -6.33500881	    -11.11273119	     10.10748813	    -10.97182833	      4.04565051	     -3.59506299	    -12.71204959	     -3.02019082	    -55.06988578	      1.30298570	    -13.52931180	     35.55832660	    -37.77798544	      5.99131178	      2.75008336
      2.98000000	     24.27469098	     -5.23122600	      3.75383203	      0.17193835	      1.03756172	      0.05485267	    -20.71440185	      7.25360045	     -6.22150047	    -10.83051270	     10.22459223	    -10.92669927	      4.03912876	     -3.31624770	    -12.58038868	     -3.37793450	    -54.24067896	      1.60977595	    -13.45623145	     35.44406402	    -37.84811201	      5.80210737	      2.87440225
      2.98500000	     24.32725169	     -5.13871247	      3.61727569	      0.17660949	      1.03800688	      0.05539429	    -21.24745220	      7.16031873	     -6.08190338	    -10.52054246	     10.31773041	    -10.85850094	      4.02685310	     -3.09657119	    -12.46358350	     -3.75979252	    -53.33613360	      1.89221800	    -13.37880499	     35.28186638	    -37.94313912	      5.61893352	      2.99096591
